<mxfile host="app.diagrams.net" modified="2021-01-18T15:19:36.530Z" agent="5.0 (Macintosh; Intel Mac OS X 10_14_3) AppleWebKit/537.36 (KHTML, like Gecko) Chrome/87.0.4280.141 Safari/537.36" etag="-BJq318d_MFOMhg-nG0K" version="14.1.2" type="github">
  <diagram id="YcBfiyrwg4JbPuCtwZ64" name="Page-1">
    <mxGraphModel dx="1004" dy="547" grid="0" gridSize="10" guides="1" tooltips="1" connect="1" arrows="1" fold="1" page="1" pageScale="1" pageWidth="950" pageHeight="1350" math="0" shadow="0">
      <root>
        <mxCell id="0" />
        <mxCell id="1" parent="0" />
        <mxCell id="HSPPrM_fJ0phIz9tJUER-13" value="&lt;font style=&quot;font-size: 14px&quot;&gt;4&lt;/font&gt;" style="rounded=0;whiteSpace=wrap;html=1;comic=1;strokeColor=#FFCCCC;fillColor=#FFCCCC;" vertex="1" parent="1">
          <mxGeometry x="101" y="276" width="51" height="36" as="geometry" />
        </mxCell>
        <mxCell id="HSPPrM_fJ0phIz9tJUER-15" value="&lt;font style=&quot;font-size: 14px&quot;&gt;6&lt;/font&gt;" style="rounded=0;whiteSpace=wrap;html=1;comic=1;fillColor=#dae8fc;strokeColor=#DAE8FC;" vertex="1" parent="1">
          <mxGeometry x="152" y="276" width="51" height="36" as="geometry" />
        </mxCell>
        <mxCell id="HSPPrM_fJ0phIz9tJUER-16" value="&lt;font style=&quot;font-size: 14px&quot;&gt;1&lt;/font&gt;" style="rounded=0;whiteSpace=wrap;html=1;comic=1;fillColor=#d5e8d4;strokeColor=#D5E8D4;" vertex="1" parent="1">
          <mxGeometry x="276" y="273" width="51" height="36" as="geometry" />
        </mxCell>
        <mxCell id="HSPPrM_fJ0phIz9tJUER-17" value="&lt;font style=&quot;font-size: 14px&quot;&gt;2&lt;/font&gt;" style="rounded=0;whiteSpace=wrap;html=1;comic=1;fillColor=#ffe6cc;strokeColor=#FFE6CC;" vertex="1" parent="1">
          <mxGeometry x="327" y="273" width="51" height="36" as="geometry" />
        </mxCell>
        <mxCell id="HSPPrM_fJ0phIz9tJUER-19" value="&lt;font style=&quot;font-size: 14px&quot;&gt;3&lt;/font&gt;" style="rounded=0;whiteSpace=wrap;html=1;comic=1;fillColor=#cdeb8b;strokeColor=#CDEB8B;" vertex="1" parent="1">
          <mxGeometry x="378" y="273" width="51" height="37" as="geometry" />
        </mxCell>
        <mxCell id="HSPPrM_fJ0phIz9tJUER-20" value="&lt;font style=&quot;font-size: 14px&quot;&gt;5&lt;/font&gt;" style="rounded=0;whiteSpace=wrap;html=1;comic=1;fillColor=#ffcccc;strokeColor=#FFCCCC;" vertex="1" parent="1">
          <mxGeometry x="429" y="273" width="51" height="37" as="geometry" />
        </mxCell>
        <mxCell id="HSPPrM_fJ0phIz9tJUER-21" value="&lt;font style=&quot;font-size: 14px&quot;&gt;1&lt;/font&gt;" style="rounded=0;whiteSpace=wrap;html=1;comic=1;strokeColor=#FFCCCC;fillColor=#FFCCCC;" vertex="1" parent="1">
          <mxGeometry x="542" y="273" width="51" height="36" as="geometry" />
        </mxCell>
        <mxCell id="HSPPrM_fJ0phIz9tJUER-22" value="" style="rounded=0;whiteSpace=wrap;html=1;comic=1;fillColor=#cce5ff;strokeColor=#CCE5FF;" vertex="1" parent="1">
          <mxGeometry x="593" y="273" width="51" height="36" as="geometry" />
        </mxCell>
        <mxCell id="HSPPrM_fJ0phIz9tJUER-24" value="" style="rounded=0;whiteSpace=wrap;html=1;comic=1;fillColor=#FFCCCC;strokeColor=#FFCCCC;" vertex="1" parent="1">
          <mxGeometry x="644" y="274" width="51" height="36" as="geometry" />
        </mxCell>
        <mxCell id="HSPPrM_fJ0phIz9tJUER-27" value="" style="rounded=0;whiteSpace=wrap;html=1;comic=1;fillColor=#66B2FF;strokeColor=#66B2FF;" vertex="1" parent="1">
          <mxGeometry x="695" y="274" width="51" height="36" as="geometry" />
        </mxCell>
        <mxCell id="HSPPrM_fJ0phIz9tJUER-32" value="" style="endArrow=classic;html=1;shadow=0;comic=1;" edge="1" parent="1">
          <mxGeometry width="50" height="50" relative="1" as="geometry">
            <mxPoint x="128" y="349" as="sourcePoint" />
            <mxPoint x="128" y="316" as="targetPoint" />
          </mxGeometry>
        </mxCell>
        <mxCell id="HSPPrM_fJ0phIz9tJUER-33" value="&lt;font style=&quot;font-size: 18px&quot;&gt;i&lt;/font&gt;" style="text;html=1;strokeColor=none;fillColor=none;align=center;verticalAlign=middle;whiteSpace=wrap;rounded=0;comic=1;" vertex="1" parent="1">
          <mxGeometry x="108.5" y="352" width="40" height="20" as="geometry" />
        </mxCell>
        <mxCell id="HSPPrM_fJ0phIz9tJUER-34" value="" style="endArrow=classic;html=1;shadow=0;comic=1;" edge="1" parent="1">
          <mxGeometry width="50" height="50" relative="1" as="geometry">
            <mxPoint x="352" y="345" as="sourcePoint" />
            <mxPoint x="352" y="312" as="targetPoint" />
          </mxGeometry>
        </mxCell>
        <mxCell id="HSPPrM_fJ0phIz9tJUER-35" value="&lt;font style=&quot;font-size: 18px&quot;&gt;j&lt;/font&gt;" style="text;html=1;strokeColor=none;fillColor=none;align=center;verticalAlign=middle;whiteSpace=wrap;rounded=0;comic=1;" vertex="1" parent="1">
          <mxGeometry x="332.5" y="348" width="40" height="20" as="geometry" />
        </mxCell>
        <mxCell id="HSPPrM_fJ0phIz9tJUER-37" value="&lt;font style=&quot;font-size: 16px&quot;&gt;i 、 j 和 k 分别指向数组a[]、数组b[] 和 数组c[] 的第一个元素&lt;/font&gt;" style="text;html=1;align=center;verticalAlign=middle;resizable=0;points=[];autosize=1;" vertex="1" parent="1">
          <mxGeometry x="101" y="57" width="433" height="19" as="geometry" />
        </mxCell>
        <mxCell id="HSPPrM_fJ0phIz9tJUER-38" value="&lt;font style=&quot;font-size: 14px&quot;&gt;4&lt;/font&gt;" style="rounded=0;whiteSpace=wrap;html=1;comic=1;strokeColor=#FFCCCC;fillColor=#FFCCCC;" vertex="1" parent="1">
          <mxGeometry x="103" y="470" width="51" height="36" as="geometry" />
        </mxCell>
        <mxCell id="HSPPrM_fJ0phIz9tJUER-39" value="&lt;font style=&quot;font-size: 14px&quot;&gt;6&lt;/font&gt;" style="rounded=0;whiteSpace=wrap;html=1;comic=1;fillColor=#dae8fc;strokeColor=#DAE8FC;" vertex="1" parent="1">
          <mxGeometry x="154" y="470" width="51" height="36" as="geometry" />
        </mxCell>
        <mxCell id="HSPPrM_fJ0phIz9tJUER-40" value="&lt;font style=&quot;font-size: 14px&quot;&gt;1&lt;/font&gt;" style="rounded=0;whiteSpace=wrap;html=1;comic=1;fillColor=#d5e8d4;strokeColor=#D5E8D4;" vertex="1" parent="1">
          <mxGeometry x="278" y="467" width="51" height="36" as="geometry" />
        </mxCell>
        <mxCell id="HSPPrM_fJ0phIz9tJUER-41" value="&lt;font style=&quot;font-size: 14px&quot;&gt;2&lt;/font&gt;" style="rounded=0;whiteSpace=wrap;html=1;comic=1;fillColor=#ffe6cc;strokeColor=#FFE6CC;" vertex="1" parent="1">
          <mxGeometry x="329" y="467" width="51" height="36" as="geometry" />
        </mxCell>
        <mxCell id="HSPPrM_fJ0phIz9tJUER-42" value="&lt;font style=&quot;font-size: 14px&quot;&gt;3&lt;/font&gt;" style="rounded=0;whiteSpace=wrap;html=1;comic=1;fillColor=#cdeb8b;strokeColor=#CDEB8B;" vertex="1" parent="1">
          <mxGeometry x="380" y="467" width="51" height="37" as="geometry" />
        </mxCell>
        <mxCell id="HSPPrM_fJ0phIz9tJUER-43" value="&lt;font style=&quot;font-size: 14px&quot;&gt;5&lt;/font&gt;" style="rounded=0;whiteSpace=wrap;html=1;comic=1;fillColor=#FFCCCC;strokeColor=#FFCCCC;" vertex="1" parent="1">
          <mxGeometry x="431" y="467" width="51" height="37" as="geometry" />
        </mxCell>
        <mxCell id="HSPPrM_fJ0phIz9tJUER-44" value="&lt;font style=&quot;font-size: 14px&quot;&gt;1&lt;/font&gt;" style="rounded=0;whiteSpace=wrap;html=1;comic=1;strokeColor=#FFCCCC;fillColor=#FFCCCC;" vertex="1" parent="1">
          <mxGeometry x="544" y="467" width="51" height="36" as="geometry" />
        </mxCell>
        <mxCell id="HSPPrM_fJ0phIz9tJUER-45" value="&lt;font style=&quot;font-size: 14px&quot;&gt;2&lt;/font&gt;" style="rounded=0;whiteSpace=wrap;html=1;comic=1;fillColor=#cce5ff;strokeColor=#CCE5FF;" vertex="1" parent="1">
          <mxGeometry x="595" y="468" width="51" height="36" as="geometry" />
        </mxCell>
        <mxCell id="HSPPrM_fJ0phIz9tJUER-46" value="" style="rounded=0;whiteSpace=wrap;html=1;comic=1;fillColor=#FFCCCC;strokeColor=#FFCCCC;" vertex="1" parent="1">
          <mxGeometry x="646" y="468" width="51" height="36" as="geometry" />
        </mxCell>
        <mxCell id="HSPPrM_fJ0phIz9tJUER-47" value="" style="rounded=0;whiteSpace=wrap;html=1;comic=1;fillColor=#66B2FF;strokeColor=#66B2FF;" vertex="1" parent="1">
          <mxGeometry x="697" y="468" width="51" height="36" as="geometry" />
        </mxCell>
        <mxCell id="HSPPrM_fJ0phIz9tJUER-48" value="" style="endArrow=classic;html=1;shadow=0;comic=1;" edge="1" parent="1">
          <mxGeometry width="50" height="50" relative="1" as="geometry">
            <mxPoint x="130" y="543" as="sourcePoint" />
            <mxPoint x="130" y="510" as="targetPoint" />
          </mxGeometry>
        </mxCell>
        <mxCell id="HSPPrM_fJ0phIz9tJUER-49" value="&lt;font style=&quot;font-size: 18px&quot;&gt;i&lt;/font&gt;" style="text;html=1;strokeColor=none;fillColor=none;align=center;verticalAlign=middle;whiteSpace=wrap;rounded=0;comic=1;" vertex="1" parent="1">
          <mxGeometry x="110.5" y="546" width="40" height="20" as="geometry" />
        </mxCell>
        <mxCell id="HSPPrM_fJ0phIz9tJUER-50" value="" style="endArrow=classic;html=1;shadow=0;comic=1;" edge="1" parent="1">
          <mxGeometry width="50" height="50" relative="1" as="geometry">
            <mxPoint x="405" y="543" as="sourcePoint" />
            <mxPoint x="405" y="510" as="targetPoint" />
          </mxGeometry>
        </mxCell>
        <mxCell id="HSPPrM_fJ0phIz9tJUER-51" value="&lt;font style=&quot;font-size: 18px&quot;&gt;j&lt;/font&gt;" style="text;html=1;strokeColor=none;fillColor=none;align=center;verticalAlign=middle;whiteSpace=wrap;rounded=0;comic=1;" vertex="1" parent="1">
          <mxGeometry x="385.5" y="546" width="40" height="20" as="geometry" />
        </mxCell>
        <mxCell id="HSPPrM_fJ0phIz9tJUER-54" value="&lt;span style=&quot;font-size: 16px&quot;&gt;比较 4 和 1，4 比1 大，则将数组b[] 中的元素1放入到数c[] 的k位置，同时将 j 和 k 向后移动一位&lt;/span&gt;" style="text;html=1;strokeColor=none;fillColor=none;align=center;verticalAlign=middle;whiteSpace=wrap;rounded=0;comic=1;" vertex="1" parent="1">
          <mxGeometry x="101" y="231" width="685" height="24" as="geometry" />
        </mxCell>
        <mxCell id="HSPPrM_fJ0phIz9tJUER-57" value="&lt;font style=&quot;font-size: 14px&quot;&gt;4&lt;/font&gt;" style="rounded=0;whiteSpace=wrap;html=1;comic=1;strokeColor=#FFCCCC;fillColor=#FFCCCC;" vertex="1" parent="1">
          <mxGeometry x="101" y="99" width="51" height="36" as="geometry" />
        </mxCell>
        <mxCell id="HSPPrM_fJ0phIz9tJUER-58" value="&lt;font style=&quot;font-size: 14px&quot;&gt;6&lt;/font&gt;" style="rounded=0;whiteSpace=wrap;html=1;comic=1;fillColor=#dae8fc;strokeColor=#DAE8FC;" vertex="1" parent="1">
          <mxGeometry x="152" y="99" width="51" height="36" as="geometry" />
        </mxCell>
        <mxCell id="HSPPrM_fJ0phIz9tJUER-59" value="&lt;font style=&quot;font-size: 14px&quot;&gt;1&lt;/font&gt;" style="rounded=0;whiteSpace=wrap;html=1;comic=1;fillColor=#d5e8d4;strokeColor=#D5E8D4;" vertex="1" parent="1">
          <mxGeometry x="276" y="96" width="51" height="36" as="geometry" />
        </mxCell>
        <mxCell id="HSPPrM_fJ0phIz9tJUER-60" value="&lt;font style=&quot;font-size: 14px&quot;&gt;2&lt;/font&gt;" style="rounded=0;whiteSpace=wrap;html=1;comic=1;fillColor=#ffe6cc;strokeColor=#FFE6CC;" vertex="1" parent="1">
          <mxGeometry x="327" y="96" width="51" height="36" as="geometry" />
        </mxCell>
        <mxCell id="HSPPrM_fJ0phIz9tJUER-61" value="&lt;font style=&quot;font-size: 14px&quot;&gt;3&lt;/font&gt;" style="rounded=0;whiteSpace=wrap;html=1;comic=1;fillColor=#cdeb8b;strokeColor=#CDEB8B;" vertex="1" parent="1">
          <mxGeometry x="378" y="96" width="51" height="37" as="geometry" />
        </mxCell>
        <mxCell id="HSPPrM_fJ0phIz9tJUER-62" value="&lt;font style=&quot;font-size: 14px&quot;&gt;5&lt;/font&gt;" style="rounded=0;whiteSpace=wrap;html=1;comic=1;fillColor=#ffcccc;strokeColor=#FFCCCC;" vertex="1" parent="1">
          <mxGeometry x="429" y="96" width="51" height="37" as="geometry" />
        </mxCell>
        <mxCell id="HSPPrM_fJ0phIz9tJUER-63" value="" style="rounded=0;whiteSpace=wrap;html=1;comic=1;strokeColor=#FFCCCC;fillColor=#FFCCCC;" vertex="1" parent="1">
          <mxGeometry x="542" y="96" width="51" height="36" as="geometry" />
        </mxCell>
        <mxCell id="HSPPrM_fJ0phIz9tJUER-64" value="" style="rounded=0;whiteSpace=wrap;html=1;comic=1;fillColor=#cce5ff;strokeColor=#CCE5FF;" vertex="1" parent="1">
          <mxGeometry x="593" y="97" width="51" height="36" as="geometry" />
        </mxCell>
        <mxCell id="HSPPrM_fJ0phIz9tJUER-65" value="" style="rounded=0;whiteSpace=wrap;html=1;comic=1;fillColor=#FFCCCC;strokeColor=#FFCCCC;" vertex="1" parent="1">
          <mxGeometry x="644" y="97" width="51" height="36" as="geometry" />
        </mxCell>
        <mxCell id="HSPPrM_fJ0phIz9tJUER-66" value="" style="rounded=0;whiteSpace=wrap;html=1;comic=1;fillColor=#66B2FF;strokeColor=#66B2FF;" vertex="1" parent="1">
          <mxGeometry x="695" y="97" width="51" height="36" as="geometry" />
        </mxCell>
        <mxCell id="HSPPrM_fJ0phIz9tJUER-67" value="" style="endArrow=classic;html=1;shadow=0;comic=1;" edge="1" parent="1">
          <mxGeometry width="50" height="50" relative="1" as="geometry">
            <mxPoint x="128" y="172" as="sourcePoint" />
            <mxPoint x="128" y="139" as="targetPoint" />
          </mxGeometry>
        </mxCell>
        <mxCell id="HSPPrM_fJ0phIz9tJUER-68" value="&lt;font style=&quot;font-size: 18px&quot;&gt;i&lt;/font&gt;" style="text;html=1;strokeColor=none;fillColor=none;align=center;verticalAlign=middle;whiteSpace=wrap;rounded=0;comic=1;" vertex="1" parent="1">
          <mxGeometry x="108.5" y="175" width="40" height="20" as="geometry" />
        </mxCell>
        <mxCell id="HSPPrM_fJ0phIz9tJUER-69" value="" style="endArrow=classic;html=1;shadow=0;comic=1;" edge="1" parent="1">
          <mxGeometry width="50" height="50" relative="1" as="geometry">
            <mxPoint x="301" y="168" as="sourcePoint" />
            <mxPoint x="301" y="135" as="targetPoint" />
          </mxGeometry>
        </mxCell>
        <mxCell id="HSPPrM_fJ0phIz9tJUER-70" value="&lt;font style=&quot;font-size: 18px&quot;&gt;j&lt;/font&gt;" style="text;html=1;strokeColor=none;fillColor=none;align=center;verticalAlign=middle;whiteSpace=wrap;rounded=0;comic=1;" vertex="1" parent="1">
          <mxGeometry x="281.5" y="171" width="40" height="20" as="geometry" />
        </mxCell>
        <mxCell id="HSPPrM_fJ0phIz9tJUER-71" value="" style="endArrow=classic;html=1;shadow=0;comic=1;" edge="1" parent="1">
          <mxGeometry width="50" height="50" relative="1" as="geometry">
            <mxPoint x="567" y="168" as="sourcePoint" />
            <mxPoint x="567" y="135" as="targetPoint" />
          </mxGeometry>
        </mxCell>
        <mxCell id="HSPPrM_fJ0phIz9tJUER-72" value="&lt;span style=&quot;font-size: 18px&quot;&gt;k&lt;/span&gt;" style="text;html=1;strokeColor=none;fillColor=none;align=center;verticalAlign=middle;whiteSpace=wrap;rounded=0;comic=1;" vertex="1" parent="1">
          <mxGeometry x="547.5" y="171" width="40" height="20" as="geometry" />
        </mxCell>
        <mxCell id="HSPPrM_fJ0phIz9tJUER-74" value="" style="rounded=0;whiteSpace=wrap;html=1;comic=1;fillColor=#d5e8d4;strokeColor=#D5E8D4;" vertex="1" parent="1">
          <mxGeometry x="746" y="96" width="51" height="36" as="geometry" />
        </mxCell>
        <mxCell id="HSPPrM_fJ0phIz9tJUER-75" value="" style="rounded=0;whiteSpace=wrap;html=1;comic=1;fillColor=#FFB570;strokeColor=#FFB570;" vertex="1" parent="1">
          <mxGeometry x="797" y="96" width="51" height="36" as="geometry" />
        </mxCell>
        <mxCell id="HSPPrM_fJ0phIz9tJUER-76" value="" style="rounded=0;whiteSpace=wrap;html=1;comic=1;fillColor=#d5e8d4;strokeColor=#D5E8D4;" vertex="1" parent="1">
          <mxGeometry x="746" y="274" width="51" height="36" as="geometry" />
        </mxCell>
        <mxCell id="HSPPrM_fJ0phIz9tJUER-77" value="" style="rounded=0;whiteSpace=wrap;html=1;comic=1;fillColor=#FFB570;strokeColor=#FFB570;" vertex="1" parent="1">
          <mxGeometry x="797" y="273" width="51" height="36" as="geometry" />
        </mxCell>
        <mxCell id="HSPPrM_fJ0phIz9tJUER-78" value="" style="rounded=0;whiteSpace=wrap;html=1;comic=1;fillColor=#d5e8d4;strokeColor=#D5E8D4;" vertex="1" parent="1">
          <mxGeometry x="748" y="468" width="51" height="36" as="geometry" />
        </mxCell>
        <mxCell id="HSPPrM_fJ0phIz9tJUER-79" value="" style="rounded=0;whiteSpace=wrap;html=1;comic=1;fillColor=#FFB570;strokeColor=#FFB570;" vertex="1" parent="1">
          <mxGeometry x="801" y="467" width="51" height="36" as="geometry" />
        </mxCell>
        <mxCell id="HSPPrM_fJ0phIz9tJUER-81" value="" style="endArrow=classic;html=1;shadow=0;comic=1;" edge="1" parent="1">
          <mxGeometry width="50" height="50" relative="1" as="geometry">
            <mxPoint x="614.5" y="345" as="sourcePoint" />
            <mxPoint x="614.5" y="312" as="targetPoint" />
          </mxGeometry>
        </mxCell>
        <mxCell id="HSPPrM_fJ0phIz9tJUER-82" value="&lt;span style=&quot;font-size: 18px&quot;&gt;k&lt;/span&gt;" style="text;html=1;strokeColor=none;fillColor=none;align=center;verticalAlign=middle;whiteSpace=wrap;rounded=0;comic=1;" vertex="1" parent="1">
          <mxGeometry x="595" y="348" width="40" height="20" as="geometry" />
        </mxCell>
        <mxCell id="HSPPrM_fJ0phIz9tJUER-83" value="&lt;span style=&quot;font-size: 16px&quot;&gt;比较 4 和 2，4 比2 大，则将数组b[] 中的元素2放入到数c[] 的k位置，同时将 j 和 k 向后移动一位&lt;/span&gt;" style="text;html=1;strokeColor=none;fillColor=none;align=center;verticalAlign=middle;whiteSpace=wrap;rounded=0;comic=1;" vertex="1" parent="1">
          <mxGeometry x="103" y="426" width="685" height="24" as="geometry" />
        </mxCell>
        <mxCell id="HSPPrM_fJ0phIz9tJUER-84" value="" style="endArrow=classic;html=1;shadow=0;comic=1;" edge="1" parent="1">
          <mxGeometry width="50" height="50" relative="1" as="geometry">
            <mxPoint x="669" y="543" as="sourcePoint" />
            <mxPoint x="669" y="510" as="targetPoint" />
          </mxGeometry>
        </mxCell>
        <mxCell id="HSPPrM_fJ0phIz9tJUER-85" value="&lt;span style=&quot;font-size: 18px&quot;&gt;k&lt;/span&gt;" style="text;html=1;strokeColor=none;fillColor=none;align=center;verticalAlign=middle;whiteSpace=wrap;rounded=0;comic=1;" vertex="1" parent="1">
          <mxGeometry x="649.5" y="546" width="40" height="20" as="geometry" />
        </mxCell>
        <mxCell id="HSPPrM_fJ0phIz9tJUER-87" value="&lt;font style=&quot;font-size: 14px&quot;&gt;4&lt;/font&gt;" style="rounded=0;whiteSpace=wrap;html=1;comic=1;strokeColor=#FFCCCC;fillColor=#FFCCCC;" vertex="1" parent="1">
          <mxGeometry x="103" y="656" width="51" height="36" as="geometry" />
        </mxCell>
        <mxCell id="HSPPrM_fJ0phIz9tJUER-88" value="&lt;font style=&quot;font-size: 14px&quot;&gt;6&lt;/font&gt;" style="rounded=0;whiteSpace=wrap;html=1;comic=1;fillColor=#dae8fc;strokeColor=#DAE8FC;" vertex="1" parent="1">
          <mxGeometry x="154" y="656" width="51" height="36" as="geometry" />
        </mxCell>
        <mxCell id="HSPPrM_fJ0phIz9tJUER-89" value="&lt;font style=&quot;font-size: 14px&quot;&gt;1&lt;/font&gt;" style="rounded=0;whiteSpace=wrap;html=1;comic=1;fillColor=#d5e8d4;strokeColor=#D5E8D4;" vertex="1" parent="1">
          <mxGeometry x="278" y="653" width="51" height="36" as="geometry" />
        </mxCell>
        <mxCell id="HSPPrM_fJ0phIz9tJUER-90" value="&lt;font style=&quot;font-size: 14px&quot;&gt;2&lt;/font&gt;" style="rounded=0;whiteSpace=wrap;html=1;comic=1;fillColor=#ffe6cc;strokeColor=#FFE6CC;" vertex="1" parent="1">
          <mxGeometry x="329" y="653" width="51" height="36" as="geometry" />
        </mxCell>
        <mxCell id="HSPPrM_fJ0phIz9tJUER-91" value="&lt;font style=&quot;font-size: 14px&quot;&gt;3&lt;/font&gt;" style="rounded=0;whiteSpace=wrap;html=1;comic=1;fillColor=#cdeb8b;strokeColor=#CDEB8B;" vertex="1" parent="1">
          <mxGeometry x="380" y="653" width="51" height="37" as="geometry" />
        </mxCell>
        <mxCell id="HSPPrM_fJ0phIz9tJUER-92" value="&lt;font style=&quot;font-size: 14px&quot;&gt;5&lt;/font&gt;" style="rounded=0;whiteSpace=wrap;html=1;comic=1;fillColor=#FFCCCC;strokeColor=#FFCCCC;" vertex="1" parent="1">
          <mxGeometry x="431" y="653" width="51" height="37" as="geometry" />
        </mxCell>
        <mxCell id="HSPPrM_fJ0phIz9tJUER-93" value="&lt;font style=&quot;font-size: 14px&quot;&gt;1&lt;/font&gt;" style="rounded=0;whiteSpace=wrap;html=1;comic=1;strokeColor=#FFCCCC;fillColor=#FFCCCC;" vertex="1" parent="1">
          <mxGeometry x="544" y="653" width="51" height="36" as="geometry" />
        </mxCell>
        <mxCell id="HSPPrM_fJ0phIz9tJUER-94" value="&lt;font style=&quot;font-size: 14px&quot;&gt;2&lt;/font&gt;" style="rounded=0;whiteSpace=wrap;html=1;comic=1;fillColor=#cce5ff;strokeColor=#CCE5FF;" vertex="1" parent="1">
          <mxGeometry x="595" y="654" width="51" height="36" as="geometry" />
        </mxCell>
        <mxCell id="HSPPrM_fJ0phIz9tJUER-95" value="&lt;font style=&quot;font-size: 14px&quot;&gt;3&lt;/font&gt;" style="rounded=0;whiteSpace=wrap;html=1;comic=1;fillColor=#FFCCCC;strokeColor=#FFCCCC;" vertex="1" parent="1">
          <mxGeometry x="646" y="654" width="51" height="36" as="geometry" />
        </mxCell>
        <mxCell id="HSPPrM_fJ0phIz9tJUER-96" value="" style="rounded=0;whiteSpace=wrap;html=1;comic=1;fillColor=#66B2FF;strokeColor=#66B2FF;" vertex="1" parent="1">
          <mxGeometry x="697" y="654" width="51" height="36" as="geometry" />
        </mxCell>
        <mxCell id="HSPPrM_fJ0phIz9tJUER-97" value="" style="endArrow=classic;html=1;shadow=0;comic=1;" edge="1" parent="1">
          <mxGeometry width="50" height="50" relative="1" as="geometry">
            <mxPoint x="130" y="729" as="sourcePoint" />
            <mxPoint x="130" y="696" as="targetPoint" />
          </mxGeometry>
        </mxCell>
        <mxCell id="HSPPrM_fJ0phIz9tJUER-98" value="&lt;font style=&quot;font-size: 18px&quot;&gt;i&lt;/font&gt;" style="text;html=1;strokeColor=none;fillColor=none;align=center;verticalAlign=middle;whiteSpace=wrap;rounded=0;comic=1;" vertex="1" parent="1">
          <mxGeometry x="110.5" y="732" width="40" height="20" as="geometry" />
        </mxCell>
        <mxCell id="HSPPrM_fJ0phIz9tJUER-99" value="" style="endArrow=classic;html=1;shadow=0;comic=1;" edge="1" parent="1">
          <mxGeometry width="50" height="50" relative="1" as="geometry">
            <mxPoint x="456" y="727" as="sourcePoint" />
            <mxPoint x="456" y="694" as="targetPoint" />
          </mxGeometry>
        </mxCell>
        <mxCell id="HSPPrM_fJ0phIz9tJUER-100" value="&lt;font style=&quot;font-size: 18px&quot;&gt;j&lt;/font&gt;" style="text;html=1;strokeColor=none;fillColor=none;align=center;verticalAlign=middle;whiteSpace=wrap;rounded=0;comic=1;" vertex="1" parent="1">
          <mxGeometry x="436.5" y="730" width="40" height="20" as="geometry" />
        </mxCell>
        <mxCell id="HSPPrM_fJ0phIz9tJUER-101" value="" style="rounded=0;whiteSpace=wrap;html=1;comic=1;fillColor=#d5e8d4;strokeColor=#D5E8D4;" vertex="1" parent="1">
          <mxGeometry x="748" y="654" width="51" height="36" as="geometry" />
        </mxCell>
        <mxCell id="HSPPrM_fJ0phIz9tJUER-102" value="" style="rounded=0;whiteSpace=wrap;html=1;comic=1;fillColor=#FFB570;strokeColor=#FFB570;" vertex="1" parent="1">
          <mxGeometry x="799" y="653" width="51" height="36" as="geometry" />
        </mxCell>
        <mxCell id="HSPPrM_fJ0phIz9tJUER-103" value="&lt;span style=&quot;font-size: 16px&quot;&gt;比较 4 和 3，4 比3 大，则将数组b[] 中的元素3放入到数c[] 的k位置，同时将 j 和 k 向后移动一位&lt;/span&gt;" style="text;html=1;strokeColor=none;fillColor=none;align=center;verticalAlign=middle;whiteSpace=wrap;rounded=0;comic=1;" vertex="1" parent="1">
          <mxGeometry x="103" y="612" width="685" height="24" as="geometry" />
        </mxCell>
        <mxCell id="HSPPrM_fJ0phIz9tJUER-104" value="" style="endArrow=classic;html=1;shadow=0;comic=1;" edge="1" parent="1">
          <mxGeometry width="50" height="50" relative="1" as="geometry">
            <mxPoint x="722" y="727" as="sourcePoint" />
            <mxPoint x="722" y="694" as="targetPoint" />
          </mxGeometry>
        </mxCell>
        <mxCell id="HSPPrM_fJ0phIz9tJUER-105" value="&lt;span style=&quot;font-size: 18px&quot;&gt;k&lt;/span&gt;" style="text;html=1;strokeColor=none;fillColor=none;align=center;verticalAlign=middle;whiteSpace=wrap;rounded=0;comic=1;" vertex="1" parent="1">
          <mxGeometry x="702.5" y="730" width="40" height="20" as="geometry" />
        </mxCell>
        <mxCell id="HSPPrM_fJ0phIz9tJUER-107" value="&lt;font style=&quot;font-size: 14px&quot;&gt;4&lt;/font&gt;" style="rounded=0;whiteSpace=wrap;html=1;comic=1;strokeColor=#FFCCCC;fillColor=#FFCCCC;" vertex="1" parent="1">
          <mxGeometry x="103" y="844" width="51" height="36" as="geometry" />
        </mxCell>
        <mxCell id="HSPPrM_fJ0phIz9tJUER-108" value="&lt;font style=&quot;font-size: 14px&quot;&gt;6&lt;/font&gt;" style="rounded=0;whiteSpace=wrap;html=1;comic=1;fillColor=#dae8fc;strokeColor=#DAE8FC;" vertex="1" parent="1">
          <mxGeometry x="154" y="844" width="51" height="36" as="geometry" />
        </mxCell>
        <mxCell id="HSPPrM_fJ0phIz9tJUER-109" value="&lt;font style=&quot;font-size: 14px&quot;&gt;1&lt;/font&gt;" style="rounded=0;whiteSpace=wrap;html=1;comic=1;fillColor=#d5e8d4;strokeColor=#D5E8D4;" vertex="1" parent="1">
          <mxGeometry x="278" y="841" width="51" height="36" as="geometry" />
        </mxCell>
        <mxCell id="HSPPrM_fJ0phIz9tJUER-110" value="&lt;font style=&quot;font-size: 14px&quot;&gt;2&lt;/font&gt;" style="rounded=0;whiteSpace=wrap;html=1;comic=1;fillColor=#ffe6cc;strokeColor=#FFE6CC;" vertex="1" parent="1">
          <mxGeometry x="329" y="841" width="51" height="36" as="geometry" />
        </mxCell>
        <mxCell id="HSPPrM_fJ0phIz9tJUER-111" value="&lt;font style=&quot;font-size: 14px&quot;&gt;3&lt;/font&gt;" style="rounded=0;whiteSpace=wrap;html=1;comic=1;fillColor=#cdeb8b;strokeColor=#CDEB8B;" vertex="1" parent="1">
          <mxGeometry x="380" y="841" width="51" height="37" as="geometry" />
        </mxCell>
        <mxCell id="HSPPrM_fJ0phIz9tJUER-112" value="&lt;font style=&quot;font-size: 14px&quot;&gt;5&lt;/font&gt;" style="rounded=0;whiteSpace=wrap;html=1;comic=1;fillColor=#FFCCCC;strokeColor=#FFCCCC;" vertex="1" parent="1">
          <mxGeometry x="431" y="841" width="51" height="37" as="geometry" />
        </mxCell>
        <mxCell id="HSPPrM_fJ0phIz9tJUER-113" value="&lt;font style=&quot;font-size: 14px&quot;&gt;1&lt;/font&gt;" style="rounded=0;whiteSpace=wrap;html=1;comic=1;strokeColor=#FFCCCC;fillColor=#FFCCCC;" vertex="1" parent="1">
          <mxGeometry x="544" y="841" width="51" height="36" as="geometry" />
        </mxCell>
        <mxCell id="HSPPrM_fJ0phIz9tJUER-114" value="&lt;font style=&quot;font-size: 14px&quot;&gt;2&lt;/font&gt;" style="rounded=0;whiteSpace=wrap;html=1;comic=1;fillColor=#cce5ff;strokeColor=#CCE5FF;" vertex="1" parent="1">
          <mxGeometry x="595" y="842" width="51" height="36" as="geometry" />
        </mxCell>
        <mxCell id="HSPPrM_fJ0phIz9tJUER-115" value="&lt;font style=&quot;font-size: 14px&quot;&gt;3&lt;/font&gt;" style="rounded=0;whiteSpace=wrap;html=1;comic=1;fillColor=#FFCCCC;strokeColor=#FFCCCC;" vertex="1" parent="1">
          <mxGeometry x="646" y="842" width="51" height="36" as="geometry" />
        </mxCell>
        <mxCell id="HSPPrM_fJ0phIz9tJUER-116" value="&lt;font style=&quot;font-size: 14px&quot;&gt;4&lt;/font&gt;" style="rounded=0;whiteSpace=wrap;html=1;comic=1;fillColor=#66B2FF;strokeColor=#66B2FF;" vertex="1" parent="1">
          <mxGeometry x="697" y="842" width="51" height="36" as="geometry" />
        </mxCell>
        <mxCell id="HSPPrM_fJ0phIz9tJUER-117" value="" style="endArrow=classic;html=1;shadow=0;comic=1;" edge="1" parent="1">
          <mxGeometry width="50" height="50" relative="1" as="geometry">
            <mxPoint x="177" y="915" as="sourcePoint" />
            <mxPoint x="177" y="882" as="targetPoint" />
          </mxGeometry>
        </mxCell>
        <mxCell id="HSPPrM_fJ0phIz9tJUER-118" value="&lt;font style=&quot;font-size: 18px&quot;&gt;i&lt;/font&gt;" style="text;html=1;strokeColor=none;fillColor=none;align=center;verticalAlign=middle;whiteSpace=wrap;rounded=0;comic=1;" vertex="1" parent="1">
          <mxGeometry x="157.5" y="918" width="40" height="20" as="geometry" />
        </mxCell>
        <mxCell id="HSPPrM_fJ0phIz9tJUER-119" value="" style="endArrow=classic;html=1;shadow=0;comic=1;" edge="1" parent="1">
          <mxGeometry width="50" height="50" relative="1" as="geometry">
            <mxPoint x="456" y="915" as="sourcePoint" />
            <mxPoint x="456" y="882" as="targetPoint" />
          </mxGeometry>
        </mxCell>
        <mxCell id="HSPPrM_fJ0phIz9tJUER-120" value="&lt;font style=&quot;font-size: 18px&quot;&gt;j&lt;/font&gt;" style="text;html=1;strokeColor=none;fillColor=none;align=center;verticalAlign=middle;whiteSpace=wrap;rounded=0;comic=1;" vertex="1" parent="1">
          <mxGeometry x="436.5" y="918" width="40" height="20" as="geometry" />
        </mxCell>
        <mxCell id="HSPPrM_fJ0phIz9tJUER-121" value="" style="rounded=0;whiteSpace=wrap;html=1;comic=1;fillColor=#d5e8d4;strokeColor=#D5E8D4;" vertex="1" parent="1">
          <mxGeometry x="748" y="842" width="51" height="36" as="geometry" />
        </mxCell>
        <mxCell id="HSPPrM_fJ0phIz9tJUER-122" value="" style="rounded=0;whiteSpace=wrap;html=1;comic=1;fillColor=#FFB570;strokeColor=#FFB570;" vertex="1" parent="1">
          <mxGeometry x="799" y="841" width="51" height="36" as="geometry" />
        </mxCell>
        <mxCell id="HSPPrM_fJ0phIz9tJUER-123" value="&lt;span style=&quot;font-size: 16px&quot;&gt;比较 4 和 5，4 比5 小，则将数组a[] 中的元素4放入到数c[] 的k位置，同时将 i 和 k 向后移动一位&lt;/span&gt;" style="text;html=1;strokeColor=none;fillColor=none;align=center;verticalAlign=middle;whiteSpace=wrap;rounded=0;comic=1;" vertex="1" parent="1">
          <mxGeometry x="103" y="800" width="685" height="24" as="geometry" />
        </mxCell>
        <mxCell id="HSPPrM_fJ0phIz9tJUER-124" value="" style="endArrow=classic;html=1;shadow=0;comic=1;" edge="1" parent="1">
          <mxGeometry width="50" height="50" relative="1" as="geometry">
            <mxPoint x="771" y="915" as="sourcePoint" />
            <mxPoint x="771" y="882" as="targetPoint" />
          </mxGeometry>
        </mxCell>
        <mxCell id="HSPPrM_fJ0phIz9tJUER-125" value="&lt;span style=&quot;font-size: 18px&quot;&gt;k&lt;/span&gt;" style="text;html=1;strokeColor=none;fillColor=none;align=center;verticalAlign=middle;whiteSpace=wrap;rounded=0;comic=1;" vertex="1" parent="1">
          <mxGeometry x="751.5" y="918" width="40" height="20" as="geometry" />
        </mxCell>
        <mxCell id="HSPPrM_fJ0phIz9tJUER-126" value="&lt;font style=&quot;font-size: 14px&quot;&gt;4&lt;/font&gt;" style="rounded=0;whiteSpace=wrap;html=1;comic=1;strokeColor=#FFCCCC;fillColor=#FFCCCC;" vertex="1" parent="1">
          <mxGeometry x="103" y="1028" width="51" height="36" as="geometry" />
        </mxCell>
        <mxCell id="HSPPrM_fJ0phIz9tJUER-127" value="&lt;font style=&quot;font-size: 14px&quot;&gt;6&lt;/font&gt;" style="rounded=0;whiteSpace=wrap;html=1;comic=1;fillColor=#dae8fc;strokeColor=#DAE8FC;" vertex="1" parent="1">
          <mxGeometry x="154" y="1028" width="51" height="36" as="geometry" />
        </mxCell>
        <mxCell id="HSPPrM_fJ0phIz9tJUER-128" value="&lt;font style=&quot;font-size: 14px&quot;&gt;1&lt;/font&gt;" style="rounded=0;whiteSpace=wrap;html=1;comic=1;fillColor=#d5e8d4;strokeColor=#D5E8D4;" vertex="1" parent="1">
          <mxGeometry x="278" y="1025" width="51" height="36" as="geometry" />
        </mxCell>
        <mxCell id="HSPPrM_fJ0phIz9tJUER-129" value="&lt;font style=&quot;font-size: 14px&quot;&gt;2&lt;/font&gt;" style="rounded=0;whiteSpace=wrap;html=1;comic=1;fillColor=#ffe6cc;strokeColor=#FFE6CC;" vertex="1" parent="1">
          <mxGeometry x="329" y="1025" width="51" height="36" as="geometry" />
        </mxCell>
        <mxCell id="HSPPrM_fJ0phIz9tJUER-130" value="&lt;font style=&quot;font-size: 14px&quot;&gt;3&lt;/font&gt;" style="rounded=0;whiteSpace=wrap;html=1;comic=1;fillColor=#cdeb8b;strokeColor=#CDEB8B;" vertex="1" parent="1">
          <mxGeometry x="380" y="1025" width="51" height="37" as="geometry" />
        </mxCell>
        <mxCell id="HSPPrM_fJ0phIz9tJUER-131" value="&lt;font style=&quot;font-size: 14px&quot;&gt;5&lt;/font&gt;" style="rounded=0;whiteSpace=wrap;html=1;comic=1;fillColor=#FFCCCC;strokeColor=#FFCCCC;" vertex="1" parent="1">
          <mxGeometry x="431" y="1025" width="51" height="37" as="geometry" />
        </mxCell>
        <mxCell id="HSPPrM_fJ0phIz9tJUER-132" value="&lt;font style=&quot;font-size: 14px&quot;&gt;1&lt;/font&gt;" style="rounded=0;whiteSpace=wrap;html=1;comic=1;strokeColor=#FFCCCC;fillColor=#FFCCCC;" vertex="1" parent="1">
          <mxGeometry x="544" y="1025" width="51" height="36" as="geometry" />
        </mxCell>
        <mxCell id="HSPPrM_fJ0phIz9tJUER-133" value="&lt;font style=&quot;font-size: 14px&quot;&gt;2&lt;/font&gt;" style="rounded=0;whiteSpace=wrap;html=1;comic=1;fillColor=#cce5ff;strokeColor=#CCE5FF;" vertex="1" parent="1">
          <mxGeometry x="595" y="1026" width="51" height="36" as="geometry" />
        </mxCell>
        <mxCell id="HSPPrM_fJ0phIz9tJUER-134" value="&lt;font style=&quot;font-size: 14px&quot;&gt;3&lt;/font&gt;" style="rounded=0;whiteSpace=wrap;html=1;comic=1;fillColor=#FFCCCC;strokeColor=#FFCCCC;" vertex="1" parent="1">
          <mxGeometry x="646" y="1026" width="51" height="36" as="geometry" />
        </mxCell>
        <mxCell id="HSPPrM_fJ0phIz9tJUER-135" value="&lt;font style=&quot;font-size: 14px&quot;&gt;4&lt;/font&gt;" style="rounded=0;whiteSpace=wrap;html=1;comic=1;fillColor=#66B2FF;strokeColor=#66B2FF;" vertex="1" parent="1">
          <mxGeometry x="697" y="1026" width="51" height="36" as="geometry" />
        </mxCell>
        <mxCell id="HSPPrM_fJ0phIz9tJUER-136" value="" style="endArrow=classic;html=1;shadow=0;comic=1;" edge="1" parent="1">
          <mxGeometry width="50" height="50" relative="1" as="geometry">
            <mxPoint x="177" y="1099" as="sourcePoint" />
            <mxPoint x="177" y="1066" as="targetPoint" />
          </mxGeometry>
        </mxCell>
        <mxCell id="HSPPrM_fJ0phIz9tJUER-137" value="&lt;font style=&quot;font-size: 18px&quot;&gt;i&lt;/font&gt;" style="text;html=1;strokeColor=none;fillColor=none;align=center;verticalAlign=middle;whiteSpace=wrap;rounded=0;comic=1;" vertex="1" parent="1">
          <mxGeometry x="157.5" y="1102" width="40" height="20" as="geometry" />
        </mxCell>
        <mxCell id="HSPPrM_fJ0phIz9tJUER-138" value="" style="endArrow=classic;html=1;shadow=0;comic=1;" edge="1" parent="1">
          <mxGeometry width="50" height="50" relative="1" as="geometry">
            <mxPoint x="499.5" y="1097" as="sourcePoint" />
            <mxPoint x="499.5" y="1064" as="targetPoint" />
          </mxGeometry>
        </mxCell>
        <mxCell id="HSPPrM_fJ0phIz9tJUER-139" value="&lt;font style=&quot;font-size: 18px&quot;&gt;j&lt;/font&gt;" style="text;html=1;strokeColor=none;fillColor=none;align=center;verticalAlign=middle;whiteSpace=wrap;rounded=0;comic=1;" vertex="1" parent="1">
          <mxGeometry x="480" y="1100" width="40" height="20" as="geometry" />
        </mxCell>
        <mxCell id="HSPPrM_fJ0phIz9tJUER-140" value="&lt;font style=&quot;font-size: 14px&quot;&gt;5&lt;/font&gt;" style="rounded=0;whiteSpace=wrap;html=1;comic=1;fillColor=#d5e8d4;strokeColor=#D5E8D4;" vertex="1" parent="1">
          <mxGeometry x="748" y="1026" width="51" height="36" as="geometry" />
        </mxCell>
        <mxCell id="HSPPrM_fJ0phIz9tJUER-141" value="" style="rounded=0;whiteSpace=wrap;html=1;comic=1;fillColor=#FFB570;strokeColor=#FFB570;" vertex="1" parent="1">
          <mxGeometry x="799" y="1025" width="51" height="36" as="geometry" />
        </mxCell>
        <mxCell id="HSPPrM_fJ0phIz9tJUER-142" value="&lt;span style=&quot;font-size: 16px&quot;&gt;比较 6 和 5，6 比5 大，则将数组b[] 中的元素5放入到数c[] 的k位置，同时将 j 和 k 向后移动一位&lt;/span&gt;" style="text;html=1;strokeColor=none;fillColor=none;align=center;verticalAlign=middle;whiteSpace=wrap;rounded=0;comic=1;" vertex="1" parent="1">
          <mxGeometry x="103" y="984" width="685" height="24" as="geometry" />
        </mxCell>
        <mxCell id="HSPPrM_fJ0phIz9tJUER-143" value="" style="endArrow=classic;html=1;shadow=0;comic=1;" edge="1" parent="1">
          <mxGeometry width="50" height="50" relative="1" as="geometry">
            <mxPoint x="826" y="1099" as="sourcePoint" />
            <mxPoint x="826" y="1066" as="targetPoint" />
          </mxGeometry>
        </mxCell>
        <mxCell id="HSPPrM_fJ0phIz9tJUER-144" value="&lt;span style=&quot;font-size: 18px&quot;&gt;k&lt;/span&gt;" style="text;html=1;strokeColor=none;fillColor=none;align=center;verticalAlign=middle;whiteSpace=wrap;rounded=0;comic=1;" vertex="1" parent="1">
          <mxGeometry x="806.5" y="1102" width="40" height="20" as="geometry" />
        </mxCell>
        <mxCell id="HSPPrM_fJ0phIz9tJUER-145" value="&lt;span style=&quot;font-size: 16px&quot;&gt;数组b[]中的元素比较完了，数组a[]中还有剩余元素，则遍历数组a[]将其剩余元素放入数组c[]中即可&lt;/span&gt;" style="text;html=1;strokeColor=none;fillColor=none;align=center;verticalAlign=middle;whiteSpace=wrap;rounded=0;comic=1;" vertex="1" parent="1">
          <mxGeometry x="101" y="1158" width="706" height="24" as="geometry" />
        </mxCell>
        <mxCell id="HSPPrM_fJ0phIz9tJUER-146" value="&lt;font style=&quot;font-size: 14px&quot;&gt;4&lt;/font&gt;" style="rounded=0;whiteSpace=wrap;html=1;comic=1;strokeColor=#FFCCCC;fillColor=#FFCCCC;" vertex="1" parent="1">
          <mxGeometry x="108.5" y="1216" width="51" height="36" as="geometry" />
        </mxCell>
        <mxCell id="HSPPrM_fJ0phIz9tJUER-147" value="&lt;font style=&quot;font-size: 14px&quot;&gt;6&lt;/font&gt;" style="rounded=0;whiteSpace=wrap;html=1;comic=1;fillColor=#dae8fc;strokeColor=#DAE8FC;" vertex="1" parent="1">
          <mxGeometry x="159.5" y="1216" width="51" height="36" as="geometry" />
        </mxCell>
        <mxCell id="HSPPrM_fJ0phIz9tJUER-148" value="&lt;font style=&quot;font-size: 14px&quot;&gt;1&lt;/font&gt;" style="rounded=0;whiteSpace=wrap;html=1;comic=1;fillColor=#d5e8d4;strokeColor=#D5E8D4;" vertex="1" parent="1">
          <mxGeometry x="283.5" y="1213" width="51" height="36" as="geometry" />
        </mxCell>
        <mxCell id="HSPPrM_fJ0phIz9tJUER-149" value="&lt;font style=&quot;font-size: 14px&quot;&gt;2&lt;/font&gt;" style="rounded=0;whiteSpace=wrap;html=1;comic=1;fillColor=#ffe6cc;strokeColor=#FFE6CC;" vertex="1" parent="1">
          <mxGeometry x="334.5" y="1213" width="51" height="36" as="geometry" />
        </mxCell>
        <mxCell id="HSPPrM_fJ0phIz9tJUER-150" value="&lt;font style=&quot;font-size: 14px&quot;&gt;3&lt;/font&gt;" style="rounded=0;whiteSpace=wrap;html=1;comic=1;fillColor=#cdeb8b;strokeColor=#CDEB8B;" vertex="1" parent="1">
          <mxGeometry x="385.5" y="1213" width="51" height="37" as="geometry" />
        </mxCell>
        <mxCell id="HSPPrM_fJ0phIz9tJUER-151" value="&lt;font style=&quot;font-size: 14px&quot;&gt;5&lt;/font&gt;" style="rounded=0;whiteSpace=wrap;html=1;comic=1;fillColor=#FFCCCC;strokeColor=#FFCCCC;" vertex="1" parent="1">
          <mxGeometry x="436.5" y="1213" width="51" height="37" as="geometry" />
        </mxCell>
        <mxCell id="HSPPrM_fJ0phIz9tJUER-152" value="&lt;font style=&quot;font-size: 14px&quot;&gt;1&lt;/font&gt;" style="rounded=0;whiteSpace=wrap;html=1;comic=1;strokeColor=#FFCCCC;fillColor=#FFCCCC;" vertex="1" parent="1">
          <mxGeometry x="549.5" y="1213" width="51" height="36" as="geometry" />
        </mxCell>
        <mxCell id="HSPPrM_fJ0phIz9tJUER-153" value="&lt;font style=&quot;font-size: 14px&quot;&gt;2&lt;/font&gt;" style="rounded=0;whiteSpace=wrap;html=1;comic=1;fillColor=#cce5ff;strokeColor=#CCE5FF;" vertex="1" parent="1">
          <mxGeometry x="600.5" y="1214" width="51" height="36" as="geometry" />
        </mxCell>
        <mxCell id="HSPPrM_fJ0phIz9tJUER-154" value="&lt;font style=&quot;font-size: 14px&quot;&gt;3&lt;/font&gt;" style="rounded=0;whiteSpace=wrap;html=1;comic=1;fillColor=#FFCCCC;strokeColor=#FFCCCC;" vertex="1" parent="1">
          <mxGeometry x="651.5" y="1214" width="51" height="36" as="geometry" />
        </mxCell>
        <mxCell id="HSPPrM_fJ0phIz9tJUER-155" value="&lt;font style=&quot;font-size: 14px&quot;&gt;4&lt;/font&gt;" style="rounded=0;whiteSpace=wrap;html=1;comic=1;fillColor=#66B2FF;strokeColor=#66B2FF;" vertex="1" parent="1">
          <mxGeometry x="702.5" y="1214" width="51" height="36" as="geometry" />
        </mxCell>
        <mxCell id="HSPPrM_fJ0phIz9tJUER-160" value="&lt;font style=&quot;font-size: 14px&quot;&gt;5&lt;/font&gt;" style="rounded=0;whiteSpace=wrap;html=1;comic=1;fillColor=#d5e8d4;strokeColor=#D5E8D4;" vertex="1" parent="1">
          <mxGeometry x="753.5" y="1214" width="51" height="36" as="geometry" />
        </mxCell>
        <mxCell id="HSPPrM_fJ0phIz9tJUER-161" value="&lt;font style=&quot;font-size: 14px&quot;&gt;6&lt;/font&gt;" style="rounded=0;whiteSpace=wrap;html=1;comic=1;fillColor=#FFB570;strokeColor=#FFB570;" vertex="1" parent="1">
          <mxGeometry x="804.5" y="1213" width="51" height="36" as="geometry" />
        </mxCell>
      </root>
    </mxGraphModel>
  </diagram>
</mxfile>
